# xmcd CD database file
#
# Track frame offsets:
#	150
#	19362
#	35537
#	52362
#	70750
#	88112
#	105500
#	122587
#	135950
#	140237
#	153312
#
# Disc length: 2339 seconds
#
# Revision: 9
# Processed by: cddbd v1.5.2PL0 Copyright (c) Steve Scherf et al.
# Submitted via: CDex 1.51
#
DISCID=9a09210b
DTITLE=Charlélie Couture - Poèmes Rock  {Bertrand Charles Élie Couture}
DYEAR=1981
DGENRE=Chanson
TTITLE0=La ballade de Serge K
TTITLE1=Oublier
TTITLE2=Tu m'as pas dit d'où tu venais
TTITLE3=T'en va plus, t'en va pas
TTITLE4=Envie de l'eau
TTITLE5=Comme un avion sans aile
TTITLE6=L'histoire du loup dans la bergerie
TTITLE7=Longtemps, longtemps  (Tu m'aimes en passant)
TTITLE8=Le chant de la colline  (instrumental)
TTITLE9=Comme si on y croyait
TTITLE10=Le fauteuil en cuir  (Combien de temps)
EXTD=YEAR: 1981
EXTT0=
EXTT1=
EXTT2=
EXTT3=
EXTT4=
EXTT5=
EXTT6=
EXTT7=
EXTT8=
EXTT9=
EXTT10=
PLAYORDER=
